<mxfile host="app.diagrams.net" agent="Mozilla/5.0 (Windows NT 10.0; Win64; x64) AppleWebKit/537.36 (KHTML, like Gecko) Chrome/129.0.0.0 Safari/537.36" version="24.8.6">
  <diagram name="Trang-1" id="jdVz7FXOIU5D_a1AsRbx">
    <mxGraphModel grid="1" page="1" gridSize="10" guides="1" tooltips="1" connect="1" arrows="1" fold="1" pageScale="1" pageWidth="827" pageHeight="1169" math="0" shadow="0">
      <root>
        <mxCell id="0" />
        <mxCell id="1" parent="0" />
        <mxCell id="zy3fDMaprIzJ6IA93k3A-1" value="" style="ellipse;whiteSpace=wrap;html=1;" vertex="1" parent="1">
          <mxGeometry x="341" y="80" width="120" height="80" as="geometry" />
        </mxCell>
        <mxCell id="zy3fDMaprIzJ6IA93k3A-2" value="Bắt đầu chương trình" style="text;strokeColor=none;align=center;fillColor=none;html=1;verticalAlign=middle;whiteSpace=wrap;rounded=0;" vertex="1" parent="1">
          <mxGeometry x="360" y="100" width="80" height="40" as="geometry" />
        </mxCell>
        <mxCell id="zy3fDMaprIzJ6IA93k3A-3" value="" style="endArrow=classic;html=1;rounded=0;exitX=0.5;exitY=1;exitDx=0;exitDy=0;" edge="1" parent="1" source="zy3fDMaprIzJ6IA93k3A-1" target="zy3fDMaprIzJ6IA93k3A-4">
          <mxGeometry width="50" height="50" relative="1" as="geometry">
            <mxPoint x="370" y="170" as="sourcePoint" />
            <mxPoint x="401" y="190" as="targetPoint" />
          </mxGeometry>
        </mxCell>
        <mxCell id="zy3fDMaprIzJ6IA93k3A-4" value="" style="shape=parallelogram;perimeter=parallelogramPerimeter;whiteSpace=wrap;html=1;fixedSize=1;" vertex="1" parent="1">
          <mxGeometry x="341" y="197" width="120" height="60" as="geometry" />
        </mxCell>
        <mxCell id="zy3fDMaprIzJ6IA93k3A-5" value="&amp;nbsp;a, b, tổng" style="text;strokeColor=none;align=center;fillColor=none;html=1;verticalAlign=middle;whiteSpace=wrap;rounded=0;" vertex="1" parent="1">
          <mxGeometry x="370" y="212" width="60" height="30" as="geometry" />
        </mxCell>
        <mxCell id="zy3fDMaprIzJ6IA93k3A-6" value="" style="endArrow=classic;html=1;rounded=0;exitX=0.5;exitY=1;exitDx=0;exitDy=0;" edge="1" parent="1" source="zy3fDMaprIzJ6IA93k3A-4" target="zy3fDMaprIzJ6IA93k3A-7">
          <mxGeometry width="50" height="50" relative="1" as="geometry">
            <mxPoint x="420" y="210" as="sourcePoint" />
            <mxPoint x="400" y="300" as="targetPoint" />
          </mxGeometry>
        </mxCell>
        <mxCell id="zy3fDMaprIzJ6IA93k3A-7" value="" style="rounded=0;whiteSpace=wrap;html=1;" vertex="1" parent="1">
          <mxGeometry x="341" y="281" width="120" height="60" as="geometry" />
        </mxCell>
        <mxCell id="zy3fDMaprIzJ6IA93k3A-9" value="" style="endArrow=classic;html=1;rounded=0;exitX=0.5;exitY=1;exitDx=0;exitDy=0;" edge="1" parent="1" source="zy3fDMaprIzJ6IA93k3A-7">
          <mxGeometry width="50" height="50" relative="1" as="geometry">
            <mxPoint x="420" y="500" as="sourcePoint" />
            <mxPoint x="401" y="370" as="targetPoint" />
          </mxGeometry>
        </mxCell>
        <mxCell id="zy3fDMaprIzJ6IA93k3A-11" value="Gắn tổng = a+b" style="text;strokeColor=none;align=center;fillColor=none;html=1;verticalAlign=middle;whiteSpace=wrap;rounded=0;" vertex="1" parent="1">
          <mxGeometry x="363" y="291" width="80" height="40" as="geometry" />
        </mxCell>
        <mxCell id="zy3fDMaprIzJ6IA93k3A-12" value="" style="endArrow=classic;html=1;rounded=0;exitX=0.5;exitY=1;exitDx=0;exitDy=0;" edge="1" parent="1">
          <mxGeometry width="50" height="50" relative="1" as="geometry">
            <mxPoint x="401" y="430" as="sourcePoint" />
            <mxPoint x="401" y="457" as="targetPoint" />
          </mxGeometry>
        </mxCell>
        <mxCell id="zy3fDMaprIzJ6IA93k3A-16" value="" style="ellipse;whiteSpace=wrap;html=1;" vertex="1" parent="1">
          <mxGeometry x="340" y="460" width="120" height="80" as="geometry" />
        </mxCell>
        <mxCell id="zy3fDMaprIzJ6IA93k3A-17" value="" style="shape=parallelogram;perimeter=parallelogramPerimeter;whiteSpace=wrap;html=1;fixedSize=1;" vertex="1" parent="1">
          <mxGeometry x="340" y="369" width="120" height="60" as="geometry" />
        </mxCell>
        <mxCell id="zy3fDMaprIzJ6IA93k3A-8" value="Tổng" style="text;strokeColor=none;align=center;fillColor=none;html=1;verticalAlign=middle;whiteSpace=wrap;rounded=0;" vertex="1" parent="1">
          <mxGeometry x="350" y="379" width="100" height="40" as="geometry" />
        </mxCell>
        <mxCell id="zy3fDMaprIzJ6IA93k3A-15" value="Kết thúc chương trình" style="text;strokeColor=none;align=center;fillColor=none;html=1;verticalAlign=middle;whiteSpace=wrap;rounded=0;" vertex="1" parent="1">
          <mxGeometry x="373" y="485" width="60" height="30" as="geometry" />
        </mxCell>
      </root>
    </mxGraphModel>
  </diagram>
</mxfile>
